<svg preserveAspectRatio="none" width="100%" height="100%" overflow="visible" style="display: block;" viewBox="0 0 23.4685 26.2333" fill="none" xmlns="http://www.w3.org/2000/svg">
<path id="Vector" d="M8.91235 22.1939C8.91235 23.9536 10.3951 25.3802 12.1548 25.3802C12.6358 25.3802 13.0919 25.2736 13.5008 25.0828C14.2289 25.4967 15.0711 25.7332 15.9686 25.7332C16.523 25.7332 17.0564 25.6429 17.5548 25.4763C17.9944 25.6424 18.4708 25.7333 18.9685 25.7333C21.1777 25.7333 22.9685 23.9425 22.9685 21.7334C22.9685 20.0238 21.896 18.5647 20.387 17.9922M20.387 17.9922C20.2873 17.9544 20.1857 17.9205 20.0824 17.8906C19.8059 17.4913 19.4729 17.1342 19.0948 16.831C18.2386 16.1442 17.1516 15.7333 15.9686 15.7333C14.5166 15.7333 13.2092 16.3522 12.2958 17.3405C11.8212 17.854 11.453 18.4672 11.226 19.1452C9.91934 19.5427 8.91235 20.7573 8.91235 22.1939M8.91235 22.1939C5.7206 21.4182 2.90883 19.2272 1.4629 15.9971C-1.01927 10.4522 1.46356 3.94499 7.00848 1.46281C10.4777 -0.0902004 14.3237 0.300383 17.3249 2.16849C15.5834 1.67645 13.666 1.76944 11.8851 2.56666C7.85244 4.37188 6.04674 9.10442 7.85196 13.1371C8.75361 15.1513 10.3855 16.6099 12.2958 17.3405M19.0948 16.831C20.5441 16.0128 21.653 14.7934 22.3429 13.3783C22.0536 15.0413 21.3847 16.6236 20.387 17.9922" stroke="var(--stroke-0, black)" stroke-linejoin="round"/>
</svg>
